<svg width="30" height="30" viewBox="0 0 30 30" fill="none" xmlns="http://www.w3.org/2000/svg">
<g clip-path="url(#clip0_33_1068)">
<path d="M11.2208 11.4619C11.3977 11.2123 11.5021 10.908 11.5021 10.5797C11.5021 9.73529 10.8138 9.04834 9.96791 9.04834C9.12199 9.04834 8.43369 9.73529 8.43369 10.5797C8.43369 10.9085 8.5384 11.2131 8.71576 11.4629C8.02992 11.89 7.58203 12.652 7.58203 13.4892V14.2083C7.58203 14.4511 7.77879 14.6478 8.02148 14.6478H11.9176C12.1603 14.6478 12.357 14.4511 12.357 14.2083V13.4892C12.3571 12.6512 11.9081 11.8887 11.2208 11.4619ZM9.96797 9.92725C10.3293 9.92725 10.6232 10.2199 10.6232 10.5797C10.6232 10.8475 10.4602 11.0779 10.2279 11.1783C10.222 11.1806 10.2161 11.1829 10.2102 11.1854C10.1351 11.2153 10.0536 11.2322 9.96797 11.2322C9.88682 11.2322 9.80941 11.2167 9.73764 11.1898C9.72521 11.184 9.7125 11.1788 9.69955 11.1743C9.47185 11.0719 9.31271 10.8442 9.31271 10.5797C9.31266 10.2199 9.60662 9.92725 9.96797 9.92725ZM11.4782 13.7689H8.461V13.4892C8.461 12.8265 8.90613 12.2387 9.53473 12.0485C9.67219 12.089 9.8175 12.1111 9.96797 12.1111C10.1187 12.1111 10.2643 12.0889 10.402 12.0483C11.0319 12.238 11.4782 12.8261 11.4782 13.4893V13.7689Z" fill="black"/>
<path d="M10.0388 6.94238C7.24426 6.94238 4.9707 9.21055 4.9707 11.9985C4.9707 14.7864 7.24426 17.0546 10.0388 17.0546C12.8333 17.0546 15.1068 14.7864 15.1068 11.9985C15.1068 9.21055 12.8333 6.94238 10.0388 6.94238ZM10.0388 16.1757C7.72889 16.1757 5.84961 14.3018 5.84961 11.9985C5.84961 9.69518 7.72889 7.82129 10.0388 7.82129C12.3487 7.82129 14.2279 9.69518 14.2279 11.9985C14.2279 14.3018 12.3487 16.1757 10.0388 16.1757Z" fill="black"/>
<path d="M24.7096 16.4492C23.1908 16.4492 21.9551 17.6822 21.9551 19.1978C21.9551 20.7143 23.1908 21.9481 24.7096 21.9481C26.2294 21.9481 27.4659 20.7143 27.4659 19.1978C27.4659 17.6822 26.2294 16.4492 24.7096 16.4492ZM24.7096 21.0692C23.6754 21.0692 22.834 20.2297 22.834 19.1979C22.834 18.1669 23.6754 17.3282 24.7096 17.3282C25.7448 17.3282 26.587 18.1669 26.587 19.1979C26.587 20.2297 25.7448 21.0692 24.7096 21.0692Z" fill="black"/>
<path d="M29.1769 17.7326H29.0596C28.9938 17.5383 28.9154 17.3496 28.8247 17.1675L28.9085 17.0844C29.2278 16.7624 29.2263 16.2398 28.9051 15.9195L27.9956 15.0124C27.8937 14.9108 27.7714 14.8417 27.6419 14.8045V3.71672C27.6419 2.75777 26.8602 1.97754 25.8994 1.97754H14.9702C14.7275 1.97754 14.5308 2.17424 14.5308 2.41699C14.5308 2.65975 14.7275 2.85645 14.9702 2.85645H25.8993C26.3755 2.85645 26.7629 3.24234 26.7629 3.71672V15.0801L26.7481 15.0949C26.5632 15.0033 26.3729 14.9245 26.1783 14.8588V14.7446C26.1783 14.4469 26.0189 14.1865 25.7814 14.0417V4.50844C25.7814 4.08785 25.4389 3.74566 25.0179 3.74566H2.62395C2.20289 3.74566 1.86035 4.08785 1.86035 4.50844V19.5179C1.86035 19.9375 2.20289 20.2789 2.62395 20.2789H12.9511C13.1938 20.2789 13.3905 20.0822 13.3905 19.8395C13.3905 19.5967 13.1938 19.4 12.9511 19.4H2.73926V4.62463H24.9025V13.9208H24.067C23.6122 13.9208 23.2423 14.2904 23.2423 14.7446V14.8588C23.0479 14.9245 22.8579 15.0033 22.6737 15.0945L22.5896 15.0107C22.2691 14.6945 21.7474 14.6943 21.4249 15.0124L20.5155 15.9195C20.3594 16.0751 20.2734 16.2822 20.2734 16.5028C20.2734 16.7233 20.3594 16.9304 20.5154 17.086L20.5967 17.1671C20.5055 17.3503 20.427 17.5392 20.3612 17.7325H20.2453C19.7905 17.7325 19.4205 18.102 19.4205 18.5562V19.4H14.9701C14.7274 19.4 14.5307 19.5967 14.5307 19.8394C14.5307 20.0822 14.7274 20.2789 14.9701 20.2789H19.5489C19.6953 20.5095 19.9524 20.6633 20.2453 20.6633H20.3612C20.4198 20.8358 20.4894 21.0047 20.5684 21.1699H1.74252C1.26633 21.1699 0.878906 20.7832 0.878906 20.3079V3.71672C0.878906 3.24234 1.26633 2.85645 1.74252 2.85645H12.9511C13.1938 2.85645 13.3905 2.65975 13.3905 2.41699C13.3905 2.17424 13.1938 1.97754 12.9511 1.97754H1.74252C0.781699 1.97754 0 2.75777 0 3.71672V20.308C0 21.2679 0.781699 22.0488 1.74252 22.0488H9.89971L9.48855 24.8728H7.91074C7.04016 24.8728 6.33193 25.579 6.33193 26.447V27.2865C6.33193 27.6926 6.66264 28.0229 7.06904 28.0229H20.5729C20.9793 28.0229 21.31 27.6925 21.31 27.2865V26.447C21.31 25.579 20.6017 24.8728 19.7312 24.8728H18.1533L17.7422 22.0488H20.2884C20.3189 22.2109 20.397 22.3594 20.5153 22.476L21.4268 23.3869C21.7475 23.7032 22.2692 23.7032 22.5915 23.3852L22.6738 23.303C22.8583 23.3945 23.0483 23.4729 23.2423 23.5381V23.653C23.2423 24.1073 23.6123 24.4768 24.067 24.4768H25.3536C25.8084 24.4768 26.1783 24.1073 26.1783 23.653V23.5381C26.3725 23.4729 26.5628 23.3943 26.7482 23.3027L26.8309 23.3852C27.1519 23.7055 27.6745 23.7054 27.9959 23.3849L28.9034 22.4781C29.0599 22.3237 29.1464 22.1173 29.1471 21.8969C29.1478 21.6756 29.0618 21.4678 28.9051 21.3114L28.824 21.2304C28.915 21.0475 28.9937 20.858 29.0596 20.6633H29.1769C29.6307 20.6633 30 20.2938 30 19.8395V18.5563C30 18.1021 29.6307 17.7326 29.1769 17.7326ZM20.4311 26.447V27.144H7.21078V26.447C7.21078 26.0636 7.52473 25.7517 7.91068 25.7517H19.7311C20.1171 25.7517 20.4311 26.0636 20.4311 26.447ZM14.6432 24.8728H12.9986V24.2781C12.9986 23.9501 13.2666 23.6834 13.596 23.6834H14.0458C14.3752 23.6834 14.6432 23.9502 14.6432 24.2781V24.8728ZM17.2651 24.8728H15.5221V24.2781C15.5221 23.4656 14.8598 22.8045 14.0458 22.8045H13.596C12.782 22.8045 12.1197 23.4656 12.1197 24.2781V24.8728H10.3767L10.7879 22.0488H16.854L17.2651 24.8728ZM29.1211 19.7844H28.732C28.5315 19.7844 28.3564 19.9202 28.3064 20.1145C28.2182 20.4577 28.0826 20.7838 27.9033 21.0837C27.7999 21.2568 27.8275 21.478 27.9703 21.6203L28.2446 21.8939L27.4132 22.7246L27.1374 22.4495C26.9955 22.3082 26.7762 22.2804 26.6038 22.3822C26.2966 22.5633 25.9696 22.6982 25.6318 22.7831C25.4365 22.8322 25.2995 23.0079 25.2995 23.2093V23.5979H24.1213V23.2093C24.1213 23.0078 23.9843 22.8322 23.7889 22.7831C23.4505 22.698 23.1243 22.5633 22.8193 22.3826C22.6468 22.2803 22.427 22.308 22.285 22.4496L22.0083 22.7255L21.1761 21.894L21.4505 21.6204C21.5927 21.4785 21.6206 21.2582 21.5181 21.0853C21.3373 20.7799 21.2014 20.4533 21.1143 20.1146C21.0643 19.9204 20.8892 19.7845 20.6886 19.7845H20.2996V18.6115H20.6886C20.8892 18.6115 21.0643 18.4758 21.1143 18.2815C21.2015 17.942 21.3373 17.6162 21.5177 17.3133C21.6207 17.1403 21.593 16.9195 21.4505 16.7774L21.1754 16.5029L22.0083 15.6721L22.285 15.9482C22.427 16.0897 22.647 16.1172 22.8194 16.0151C23.1233 15.8351 23.45 15.6996 23.7908 15.6124C23.9852 15.5627 24.1213 15.3874 24.1213 15.1867V14.7998H25.2996V15.1867C25.2996 15.3874 25.4356 15.5627 25.6301 15.6124C25.9702 15.6994 26.2978 15.8351 26.6039 16.0155C26.7762 16.1172 26.9957 16.0896 27.1375 15.9482L27.4133 15.673L28.2462 16.5037L27.9712 16.7766C27.8275 16.9191 27.7997 17.1413 27.904 17.3148C28.0827 17.6124 28.2182 17.9377 28.3066 18.2816C28.3566 18.4758 28.5316 18.6117 28.7322 18.6117H29.1211V19.7844Z" fill="black"/>
<path d="M16.8418 10.1401H22.3353C22.578 10.1401 22.7747 9.94344 22.7747 9.70068C22.7747 9.45793 22.578 9.26123 22.3353 9.26123H16.8418C16.599 9.26123 16.4023 9.45793 16.4023 9.70068C16.4023 9.94344 16.5991 10.1401 16.8418 10.1401Z" fill="black"/>
<path d="M16.8418 12.2285H22.3353C22.578 12.2285 22.7747 12.0318 22.7747 11.7891C22.7747 11.5463 22.578 11.3496 22.3353 11.3496H16.8418C16.599 11.3496 16.4023 11.5463 16.4023 11.7891C16.4023 12.0318 16.5991 12.2285 16.8418 12.2285Z" fill="black"/>
<path d="M16.8418 14.3149H19.691C19.9338 14.3149 20.1305 14.1182 20.1305 13.8755C20.1305 13.6327 19.9338 13.436 19.691 13.436H16.8418C16.599 13.436 16.4023 13.6327 16.4023 13.8755C16.4023 14.1182 16.5991 14.3149 16.8418 14.3149Z" fill="black"/>
</g>
<defs>
<clipPath id="clip0_33_1068">
<rect width="30" height="30" fill="white"/>
</clipPath>
</defs>
</svg>
