<svg width="30" height="30" viewBox="0 0 30 30" fill="none" xmlns="http://www.w3.org/2000/svg">
<path d="M24.7647 25.1395H15.1583V24.9258C15.1583 24.6831 14.9616 24.4863 14.7188 24.4863C14.476 24.4863 14.2793 24.6831 14.2793 24.9258V25.1395H9.21293C8.97015 25.1395 8.77344 25.3363 8.77344 25.579C8.77344 25.8217 8.97015 26.0185 9.21293 26.0185H14.2793V26.2323C14.2793 26.475 14.476 26.6718 14.7188 26.6718C14.9616 26.6718 15.1583 26.475 15.1583 26.2323V26.0185H24.7648C25.0076 26.0185 25.2043 25.8217 25.2043 25.579C25.2043 25.3363 25.0075 25.1395 24.7647 25.1395Z" fill="black"/>
<path d="M4.79804 23.189C3.48027 23.189 2.4082 24.261 2.4082 25.5788C2.4082 26.8966 3.48027 27.9686 4.79804 27.9686C6.11581 27.9686 7.18788 26.8966 7.18788 25.5788C7.18788 24.261 6.11581 23.189 4.79804 23.189ZM4.79804 27.0897C3.96494 27.0897 3.28719 26.4119 3.28719 25.5788C3.28719 24.7457 3.96494 24.0679 4.79804 24.0679C5.63114 24.0679 6.3089 24.7457 6.3089 25.5788C6.3089 26.4119 5.63108 27.0897 4.79804 27.0897Z" fill="black"/>
<path d="M11.3053 17.8407C11.3909 18.0675 11.6451 18.1822 11.8717 18.0967C12.0987 18.0111 12.2133 17.7575 12.1276 17.5304L10.3385 12.7894C10.337 12.7853 10.3354 12.7813 10.3337 12.7773C10.2488 12.5709 10.0498 12.4375 9.82603 12.4375C9.60259 12.4377 9.40353 12.5715 9.31892 12.7783C9.31757 12.7816 9.31622 12.7849 9.31499 12.7883L7.50938 17.529C7.42295 17.7559 7.53686 18.0098 7.7637 18.0962C7.99018 18.1827 8.24439 18.0687 8.33082 17.8419L8.67269 16.9443H10.9671C10.967 16.9443 11.3051 17.8403 11.3053 17.8407ZM9.0074 16.0654L9.82509 13.9185L10.6353 16.0654H9.0074Z" fill="black"/>
<path d="M18.7596 18.0799C19.4303 18.0799 19.9939 17.6497 20.0998 17.057C20.1798 16.6087 19.9792 16.0242 19.1763 15.728C18.9798 15.6555 18.7851 15.5779 18.5917 15.4973C18.4953 15.4571 18.289 15.399 18.3094 15.2573C18.3155 15.2146 18.3475 15.1101 18.5108 15.0609C18.9084 14.9411 19.2829 15.2338 19.2958 15.2442C19.4815 15.3979 19.7569 15.3733 19.9124 15.1883C20.0686 15.0025 20.0445 14.7253 19.8588 14.5691C19.829 14.5441 19.1202 13.9594 18.2572 14.2193C17.8143 14.3526 17.5009 14.7027 17.4392 15.1326C17.3811 15.5372 17.5565 15.9264 17.8968 16.1486C18.1784 16.3324 18.5588 16.4371 18.872 16.5527C18.9655 16.5871 19.268 16.7143 19.2344 16.9025C19.2087 17.046 19.0199 17.2009 18.7595 17.2009C18.4727 17.2009 18.1974 17.086 18.023 16.8934C17.86 16.7135 17.582 16.7 17.4022 16.8629C17.2223 17.0259 17.2086 17.3039 17.3717 17.4837C17.7151 17.8625 18.2209 18.0799 18.7596 18.0799Z" fill="black"/>
<path d="M14.4669 18.08C14.8768 18.08 15.258 17.9545 15.5739 17.7398C15.6189 17.9347 15.7935 18.08 16.0021 18.08C16.2449 18.08 16.4416 17.8833 16.4416 17.6406V13.0621C16.4416 12.8193 16.2449 12.6226 16.0021 12.6226C15.7594 12.6226 15.5627 12.8193 15.5627 13.0621V14.4633C15.2489 14.2532 14.8719 14.1306 14.4669 14.1306C13.378 14.1306 12.4922 15.0164 12.4922 16.1053C12.4922 17.1942 13.378 18.08 14.4669 18.08ZM14.4669 15.0095C15.0711 15.0095 15.5627 15.5011 15.5627 16.1053C15.5627 16.7094 15.0711 17.201 14.4669 17.201C13.8628 17.201 13.3712 16.7094 13.3712 16.1053C13.3712 15.5011 13.8627 15.0095 14.4669 15.0095Z" fill="black"/>
<path d="M24.5603 0.0302734C24.0302 0.0302734 23.5062 0.106452 23.0028 0.256641C22.7702 0.326081 22.6379 0.570848 22.7074 0.803486C22.7767 1.03606 23.0216 1.16826 23.2542 1.09894C23.6759 0.973071 24.1154 0.909257 24.5603 0.909257C27.0751 0.909257 29.121 2.95518 29.121 5.47001C29.121 7.98484 27.0751 10.0308 24.5603 10.0308C22.0455 10.0308 19.9996 7.98484 19.9996 5.47001C19.9996 4.10342 20.6049 2.82034 21.6604 1.94974C21.8477 1.79527 21.8743 1.51828 21.7199 1.33105C21.5653 1.14377 21.2883 1.11728 21.1011 1.27169C20.4073 1.84403 19.8766 2.56585 19.54 3.37147H1.31795C0.591263 3.37147 0 3.96267 0 4.68935V28.6513C0 29.378 0.591263 29.9692 1.31795 29.9692H26.2801C27.0068 29.9692 27.598 29.378 27.598 28.6513V9.98037C29.0461 9.00194 29.9999 7.34523 29.9999 5.46995C30 2.47051 27.5598 0.0302734 24.5603 0.0302734ZM0.878983 4.68935C0.878983 4.44734 1.07588 4.25039 1.31795 4.25039H19.2581C19.1675 4.64611 19.1206 5.05478 19.1206 5.46995C19.1206 5.80408 19.1509 6.13124 19.2088 6.44884H0.878983V4.68935ZM26.7191 28.6513C26.7191 28.8933 26.5222 29.0902 26.2801 29.0902H1.31795C1.07588 29.0902 0.878983 28.8933 0.878983 28.6513V7.32783H19.4473C19.5922 7.72519 19.7821 8.1011 20.0109 8.44929H3.2503C2.77835 8.44929 2.39441 8.83323 2.39441 9.30519V21.2573C2.39441 21.7292 2.77841 22.1131 3.2503 22.1131H7.37332C7.6161 22.1131 7.81281 21.9164 7.81281 21.6737C7.81281 21.4309 7.6161 21.2342 7.37332 21.2342H3.27333V9.32828H20.7294C21.6612 10.2536 22.9254 10.8447 24.3247 10.9046V21.2342H9.39991C9.15713 21.2342 8.96041 21.431 8.96041 21.6737C8.96041 21.9164 9.15713 22.1132 9.39991 22.1132H24.3478C24.8197 22.1132 25.2037 21.7293 25.2037 21.2573V10.8718C25.7359 10.8088 26.2449 10.6687 26.719 10.4629V28.6513H26.7191Z" fill="black"/>
<path d="M24.669 7.31608C24.1781 7.31608 23.7044 7.11679 23.4019 6.78295C23.2389 6.60311 22.961 6.5894 22.7811 6.75242C22.6012 6.91544 22.5876 7.19332 22.7506 7.37322C23.0995 7.75827 23.5887 8.02718 24.1208 8.13823V8.63204C24.1208 8.87476 24.3175 9.07153 24.5603 9.07153C24.8031 9.07153 24.9998 8.87476 24.9998 8.63204V8.1677C25.7395 8.04417 26.3423 7.5155 26.4625 6.84225C26.6489 5.79843 25.6809 5.22961 24.8303 4.96644C24.4051 4.83489 24.0037 4.71066 23.8549 4.41374C23.6931 4.09062 23.9063 3.77595 24.233 3.67756C24.9472 3.46233 25.5958 3.97923 25.6122 3.99259C25.798 4.14729 26.074 4.12285 26.2298 3.93762C26.3859 3.75181 26.362 3.47457 26.1762 3.31841C26.148 3.29473 25.6766 2.90587 24.9998 2.78258V2.30863C24.9998 2.06592 24.8031 1.86914 24.5604 1.86914C24.3176 1.86914 24.1209 2.06592 24.1209 2.30863V2.79858C24.0741 2.80924 24.0269 2.82167 23.9795 2.83591C23.5504 2.96517 23.2061 3.26713 23.0348 3.66455C22.8743 4.03712 22.8865 4.4431 23.0691 4.80758C23.3857 5.43957 24.0426 5.64279 24.5705 5.80617C24.9565 5.92559 25.6944 6.14446 25.5974 6.68779C25.5421 6.99654 25.1798 7.31608 24.669 7.31608Z" fill="black"/>
<path d="M5.04264 25.2142C4.99558 25.1821 4.94226 25.1589 4.88501 25.1477C4.61604 25.095 4.35938 25.3073 4.35938 25.579C4.35938 25.8103 4.5681 26.0185 4.79887 26.0185C5.03566 26.0185 5.23836 25.8183 5.23836 25.579C5.23842 25.4316 5.1603 25.2947 5.04264 25.2142Z" fill="black"/>
</svg>
