<svg width="10" height="10" viewBox="0 0 10 10" fill="none" xmlns="http://www.w3.org/2000/svg">
<g clip-path="url(#clip0_33_926)">
<path d="M6.50736 4.63682C7.14723 4.17016 7.56391 3.41492 7.56391 2.5641C7.56391 1.15025 6.41365 0 4.9998 0C3.58596 0 2.4357 1.15025 2.4357 2.5641C2.4357 3.41492 2.85236 4.17016 3.49225 4.63682C1.90162 5.24551 0.769043 6.78771 0.769043 8.58975C0.769043 9.36736 1.40168 10 2.1793 10H7.82031C8.59793 10 9.23057 9.36736 9.23057 8.58975C9.23057 6.78771 8.09799 5.24551 6.50736 4.63682ZM3.20494 2.5641C3.20494 1.57441 4.01012 0.769238 4.9998 0.769238C5.98949 0.769238 6.79467 1.57441 6.79467 2.5641C6.79467 3.55379 5.98949 4.35898 4.9998 4.35898C4.01012 4.35898 3.20494 3.55379 3.20494 2.5641ZM7.82031 9.23076H2.1793C1.82584 9.23076 1.53828 8.9432 1.53828 8.58973C1.53828 6.68102 3.09109 5.12818 4.99982 5.12818C6.90856 5.12818 8.46137 6.681 8.46137 8.58973C8.46135 8.9432 8.17379 9.23076 7.82031 9.23076Z" fill="#353535"/>
</g>
<defs>
<clipPath id="clip0_33_926">
<rect width="10" height="10" fill="white"/>
</clipPath>
</defs>
</svg>
