<svg width="30" height="30" viewBox="0 0 30 30" fill="none" xmlns="http://www.w3.org/2000/svg">
<path d="M25.0195 10.4883C25.3431 10.4883 25.6055 10.2259 25.6055 9.90234C25.6055 9.57874 25.3431 9.31641 25.0195 9.31641C24.6959 9.31641 24.4336 9.57874 24.4336 9.90234C24.4336 10.2259 24.6959 10.4883 25.0195 10.4883Z" fill="black"/>
<path d="M27.871 22.5503C27.0759 22.2087 26.3268 21.767 25.6347 21.2327C25.6249 21.2248 25.6154 21.2168 25.6054 21.2091V12.5395C25.6054 12.2167 25.3423 11.9536 25.0195 11.9536C24.6966 11.9536 24.4335 12.2167 24.4335 12.5395V20.1848L22.1967 18.1412L22.5921 17.7459C23.2774 17.0606 23.2774 15.9454 22.5921 15.2601C22.1303 14.7984 21.4735 14.6483 20.8845 14.8087C21.021 14.2749 21.0938 13.7159 21.0938 13.1401C21.0938 11.1612 20.2361 9.37887 18.8732 8.145H20.7129C21.0357 8.145 21.2988 7.88192 21.2988 7.55906C21.2988 7.23621 21.0357 6.97313 20.7129 6.97313H17.0692C16.2386 6.60615 15.3205 6.40184 14.3555 6.40184C13.3905 6.40184 12.4725 6.60615 11.6418 6.97313H10.1661C9.84323 6.97313 9.58014 7.23621 9.58014 7.55906C9.58014 7.78881 9.71373 7.98774 9.90692 8.08365C8.50401 9.3194 7.61725 11.128 7.61725 13.1401C7.61725 15.4501 8.78578 17.492 10.5626 18.7065H8.20319C7.88033 18.7065 7.61725 18.9696 7.61725 19.2925C7.61725 19.6153 7.88033 19.8784 8.20319 19.8784H14.3555C14.8147 19.8784 15.2634 19.8321 15.697 19.7441C15.4304 20.1899 15.3787 20.7292 15.5416 21.2114H8.20319C7.88033 21.2114 7.61725 21.4745 7.61725 21.7973C7.61725 22.1202 7.88033 22.3833 8.20319 22.3833H17.2055H17.2056C17.6752 22.3833 18.1166 22.2213 18.4487 21.8893L18.8439 21.4941L20.7269 23.5552H16.4649C16.1414 23.5552 15.879 23.8175 15.879 24.1411C15.879 24.4646 16.1414 24.727 16.4649 24.727H21.7726C22.0761 25.1006 22.3516 25.492 22.5984 25.8989H8.20319C7.88033 25.8989 7.61725 26.162 7.61725 26.4848C7.61725 26.8077 7.88033 27.0708 8.20319 27.0708H23.2097C23.4567 27.6896 23.9054 28.2713 24.4335 28.6428V28.8286H6.44543V5.21531H24.4336V7.2661C24.4336 7.58895 24.6967 7.85203 25.0195 7.85203C25.3424 7.85203 25.6055 7.58895 25.6055 7.2661V4.62938C25.6097 4.34162 25.3528 4.03998 25.0195 4.04344H20.6551L19.6058 0.423284C19.5621 0.272522 19.4597 0.145608 19.3216 0.0709599C19.1836 -0.00368851 19.0212 -0.0197432 18.8712 0.0261943L0.417716 5.6502C0.113088 5.7416 -0.0630453 6.05924 0.0209196 6.36604L5.27356 25.5674V29.4145C5.27356 29.5686 5.33619 29.7198 5.44524 29.8287C5.55422 29.9377 5.70539 30.0005 5.85949 30.0005H25.0195C25.1736 30.0005 25.3248 29.9378 25.4337 29.8287C25.5427 29.7198 25.6055 29.5686 25.6055 29.4145V29.1879C25.9133 29.265 26.266 29.3089 26.6208 29.2948C28.4449 29.2254 29.9281 27.7423 29.9974 25.9181C30.0531 24.4511 29.2184 23.1292 27.871 22.5503ZM18.6459 1.32106L19.435 4.04344H9.76864L18.6459 1.32106ZM1.30213 6.60832L5.27356 5.41688V21.1262L1.30213 6.60832ZM8.78912 13.1401C8.78912 10.0708 11.2862 7.57371 14.3555 7.57371C17.4247 7.57371 19.9219 10.0708 19.9219 13.1401C19.9219 16.2094 17.4248 18.7065 14.3555 18.7065C11.2863 18.7065 8.78912 16.2094 8.78912 13.1401ZM17.2056 21.2323C17.0822 21.2344 16.9037 21.1734 16.7913 21.0606C16.5629 20.8321 16.5629 20.4604 16.7913 20.232L20.935 16.0887C21.1634 15.8603 21.5351 15.8604 21.7634 16.0887C21.9707 16.2889 22.0024 16.6842 21.7634 16.9172L17.62 21.0606C17.5093 21.1713 17.3622 21.2323 17.2056 21.2323ZM22.5029 23.773C22.4988 23.7679 19.6734 20.6645 19.6734 20.6645L21.3673 18.9707L24.166 21.5276C25.1345 22.4124 26.2255 23.1187 27.4085 23.627C28.3071 24.013 28.8636 24.8948 28.8264 25.8736C28.7802 27.0892 27.7919 28.0775 26.5763 28.1236C25.5989 28.1616 24.7157 27.6043 24.3297 26.7058C23.8748 25.647 23.2609 24.6624 22.5029 23.773Z" fill="black"/>
<path d="M13.8281 24.7266C14.1517 24.7266 14.4141 24.4642 14.4141 24.1406C14.4141 23.8171 14.1517 23.5547 13.8281 23.5547H8.20312C7.87957 23.5547 7.61719 23.8171 7.61719 24.1406C7.61719 24.4642 7.87957 24.7266 8.20312 24.7266H13.8281Z" fill="black"/>
</svg>
