<svg width="20" height="21" viewBox="0 0 20 21" fill="none" xmlns="http://www.w3.org/2000/svg">
<path d="M4.46401 3.77148H15.5354C16.1284 3.77145 16.6989 3.99831 17.1299 4.40554C17.5609 4.81276 17.8197 5.36948 17.8533 5.96148L17.8569 6.09291V14.3072C17.8569 14.9002 17.63 15.4706 17.2228 15.9016C16.8156 16.3327 16.2589 16.5915 15.6669 16.6251L15.5354 16.6286H4.46401C3.87105 16.6287 3.30056 16.4018 2.86956 15.9946C2.43855 15.5873 2.17972 15.0306 2.14615 14.4386L2.14258 14.3072V6.09291C2.14254 5.49996 2.3694 4.92946 2.77663 4.49846C3.18386 4.06746 3.74057 3.80863 4.33258 3.77506L4.46401 3.77148ZM16.7854 7.98934L10.2469 11.3893C10.1835 11.4223 10.1143 11.4422 10.0431 11.4479C9.97197 11.4537 9.90039 11.4452 9.83258 11.4229L9.75258 11.3893L3.21401 7.98934V14.3072C3.21402 14.6209 3.33199 14.9231 3.54449 15.1539C3.757 15.3847 4.04851 15.5271 4.36115 15.5529L4.46401 15.5572H15.5354C15.8493 15.5572 16.1516 15.4391 16.3824 15.2265C16.6132 15.0138 16.7555 14.7221 16.7811 14.4093L16.7854 14.3072V7.98934ZM15.5354 4.84291H4.46401C4.1503 4.84292 3.84807 4.96089 3.6173 5.1734C3.38653 5.3859 3.24411 5.67741 3.21829 5.99006L3.21401 6.09291V6.78148L9.99972 10.3101L16.7854 6.78148V6.09291C16.7854 5.77909 16.6673 5.47676 16.4547 5.24598C16.242 5.01519 15.9503 4.87284 15.6376 4.8472L15.5354 4.84291Z" fill="black"/>
</svg>
