<svg width="20" height="19" viewBox="0 0 20 19" fill="none" xmlns="http://www.w3.org/2000/svg">
<path d="M19.4238 12.1191L19.9023 13.2812L18.6914 13.7793C18.7305 13.9746 18.75 14.1732 18.75 14.375C18.75 14.5768 18.7305 14.7754 18.6914 14.9707L19.9023 15.4688L19.4238 16.6309L18.2129 16.123C17.985 16.4551 17.7051 16.735 17.373 16.9629L17.8809 18.1738L16.7188 18.6523L16.2207 17.4414C16.0254 17.4805 15.8268 17.5 15.625 17.5C15.4232 17.5 15.2246 17.4805 15.0293 17.4414L14.5312 18.6523L13.3691 18.1738L13.877 16.9629C13.5449 16.735 13.265 16.4551 13.0371 16.123L11.8262 16.6309L11.3477 15.4688L12.5586 14.9707C12.5195 14.7754 12.5 14.5768 12.5 14.375C12.5 14.1732 12.5195 13.9746 12.5586 13.7793L11.3477 13.2812L11.8262 12.1191L13.0371 12.627C13.265 12.2949 13.5449 12.015 13.877 11.7871L13.3691 10.5762L14.5312 10.0977L15.0293 11.3086C15.2246 11.2695 15.4232 11.25 15.625 11.25C15.8268 11.25 16.0254 11.2695 16.2207 11.3086L16.7188 10.0977L17.8809 10.5762L17.373 11.7871C17.7051 12.015 17.985 12.2949 18.2129 12.627L19.4238 12.1191ZM17.5 14.375C17.5 14.1146 17.4512 13.8704 17.3535 13.6426C17.2559 13.4147 17.1224 13.2161 16.9531 13.0469C16.7839 12.8776 16.5853 12.7441 16.3574 12.6465C16.1296 12.5488 15.8854 12.5 15.625 12.5C15.3646 12.5 15.1204 12.5488 14.8926 12.6465C14.6647 12.7441 14.4661 12.8776 14.2969 13.0469C14.1276 13.2161 13.9941 13.4147 13.8965 13.6426C13.7988 13.8704 13.75 14.1146 13.75 14.375C13.75 14.6354 13.7988 14.8796 13.8965 15.1074C13.9941 15.3353 14.1276 15.5339 14.2969 15.7031C14.4661 15.8724 14.6647 16.0059 14.8926 16.1035C15.1204 16.2012 15.3646 16.25 15.625 16.25C15.8854 16.25 16.1296 16.2012 16.3574 16.1035C16.5853 16.0059 16.7839 15.8724 16.9531 15.7031C17.1224 15.5339 17.2559 15.3353 17.3535 15.1074C17.4512 14.8796 17.5 14.6354 17.5 14.375ZM0 0H20V2.13867L12.5 9.63867C12.4349 9.70378 12.3503 9.77865 12.2461 9.86328C12.1419 9.94792 12.028 10.0391 11.9043 10.1367C11.7806 10.2344 11.6602 10.3223 11.543 10.4004C11.4258 10.4785 11.3281 10.5534 11.25 10.625V9.11133L18.75 1.61133V1.25H1.25V1.61133L8.75 9.11133V16.25H10.3418C10.4199 16.4714 10.5078 16.6862 10.6055 16.8945C10.7031 17.1029 10.8171 17.3047 10.9473 17.5H7.5V9.63867L0 2.13867V0Z" fill="#333333"/>
</svg>
