<svg width="8" height="8" viewBox="0 0 10 10" fill="none" xmlns="http://www.w3.org/2000/svg">
<g clip-path="url(#clip0_33_800)">
<path d="M5 1.17188C3.8692 1.17188 2.94922 2.09186 2.94922 3.22266C2.94922 3.92467 3.30324 4.57061 3.89623 4.95053C4.50176 5.33848 5.24506 5.37971 5.9358 5.06191C6.08277 4.9943 6.14713 4.82031 6.07949 4.67332C6.01187 4.52635 5.83791 4.46199 5.6909 4.52961C5.18582 4.76199 4.64688 4.73557 4.21232 4.45717C3.7883 4.18551 3.53516 3.724 3.53516 3.22266C3.53516 2.41494 4.19229 1.75781 5 1.75781C5.80771 1.75781 6.46484 2.41494 6.46484 3.22266C6.46484 3.3842 6.33342 3.51562 6.17188 3.51562C6.02426 3.51562 5.88637 3.40367 5.87895 3.22711C5.87893 3.22563 5.87891 3.22414 5.87891 3.22266C5.87891 2.73803 5.48463 2.34375 5 2.34375C4.51537 2.34375 4.12109 2.73803 4.12109 3.22266C4.12109 3.70729 4.51537 4.10156 5 4.10156C5.22492 4.10156 5.43029 4.01654 5.58592 3.87707C5.74152 4.01656 5.94693 4.10156 6.17188 4.10156C6.6565 4.10156 7.05078 3.70729 7.05078 3.22266C7.05078 2.09186 6.1308 1.17188 5 1.17188ZM5.28885 3.26965C5.26623 3.40889 5.14551 3.51562 5 3.51562C4.83846 3.51562 4.70703 3.3842 4.70703 3.22266C4.70703 3.06111 4.83846 2.92969 5 2.92969C5.15021 2.92969 5.27422 3.04336 5.29092 3.18916C5.28654 3.21578 5.28582 3.24287 5.28885 3.26965Z" fill="#353535"/>
<path d="M9.39451 3.84719C9.39443 3.77143 9.36393 3.6957 9.30871 3.64049L8.22266 2.55443V0.292969C8.22266 0.131172 8.09148 0 7.92969 0H2.07031C1.90852 0 1.77734 0.131172 1.77734 0.292969V2.55443L0.691289 3.64049C0.690273 3.6415 0.689414 3.64264 0.688418 3.64367C0.633516 3.70023 0.605605 3.77471 0.605488 3.84719C0.605488 3.84738 0.605469 3.84756 0.605469 3.84775V9.12109C0.605469 9.60635 1.00031 10 1.48438 10H8.51562C9.00076 10 9.39453 9.60533 9.39453 9.12109V3.84775C9.39453 3.84756 9.39451 3.84738 9.39451 3.84719ZM8.22266 3.38307L8.68725 3.84766L8.22266 4.31225V3.38307ZM2.36328 2.67588C2.36328 2.67582 2.36328 2.67574 2.36328 2.67568V0.585938H7.63672V2.67568C7.63672 2.67574 7.63672 2.67582 7.63672 2.67588V4.89818L6.05053 6.48438H3.94947L2.36328 4.89818V2.67588ZM1.77734 3.38307V4.31225L1.31275 3.84766L1.77734 3.38307ZM1.19141 8.99975V4.55494L3.41381 6.77734L1.19141 8.99975ZM1.60574 9.41406L3.94947 7.07031H6.05053L8.39426 9.41406H1.60574ZM8.80859 8.99975L6.58619 6.77734L8.80859 4.55494V8.99975Z" fill="#353535"/>
</g>
<defs>
<clipPath id="clip0_33_800">
<rect width="10" height="10" fill="white"/>
</clipPath>
</defs>
</svg>
