<svg width="20" height="21" viewBox="0 0 20 21" fill="none" xmlns="http://www.w3.org/2000/svg">
<path d="M7.53268 18.15C8.33268 18.3917 9.14102 18.5334 9.99935 18.5334C12.2095 18.5334 14.3291 17.6554 15.8919 16.0926C17.4547 14.5298 18.3327 12.4102 18.3327 10.2C18.3327 9.10568 18.1171 8.02205 17.6983 7.011C17.2796 5.99996 16.6657 5.0813 15.8919 4.30748C15.1181 3.53365 14.1994 2.91983 13.1884 2.50104C12.1773 2.08225 11.0937 1.8667 9.99935 1.8667C8.905 1.8667 7.82137 2.08225 6.81032 2.50104C5.79927 2.91983 4.88061 3.53365 4.10679 4.30748C2.54399 5.87028 1.66602 7.98989 1.66602 10.2C1.66602 13.7417 3.89102 16.7834 7.03268 17.9834C6.95768 17.3334 6.88268 16.2584 7.03268 15.5167L7.99102 11.4C7.99102 11.4 7.74935 10.9167 7.74935 10.15C7.74935 9.00003 8.46602 8.1417 9.28268 8.1417C9.99935 8.1417 10.3327 8.6667 10.3327 9.3417C10.3327 10.0584 9.85768 11.0834 9.61602 12.0667C9.47435 12.8834 10.0493 13.6 10.8827 13.6C12.366 13.6 13.516 12.0167 13.516 9.78337C13.516 7.78337 12.0827 6.4167 10.0243 6.4167C7.67435 6.4167 6.29102 8.1667 6.29102 10.0084C6.29102 10.725 6.52435 11.45 6.90768 11.925C6.98268 11.975 6.98268 12.0417 6.95768 12.1667L6.71602 13.075C6.71602 13.2167 6.62435 13.2667 6.48268 13.1667C5.41602 12.7 4.79935 11.1834 4.79935 9.95837C4.79935 7.32503 6.66602 4.93337 10.266 4.93337C13.1327 4.93337 15.366 6.9917 15.366 9.72503C15.366 12.5917 13.591 14.8917 11.0493 14.8917C10.241 14.8917 9.44935 14.4584 9.16602 13.95L8.60768 15.925C8.41602 16.6417 7.89102 17.6 7.53268 18.175V18.15Z" fill="black"/>
</svg>
