<svg width="10" height="10" viewBox="0 0 10 10" fill="none" xmlns="http://www.w3.org/2000/svg">
<g clip-path="url(#clip0_33_810)">
<path d="M3.80089 5.26415C2.34994 5.26415 1.1695 4.08371 1.1695 2.63276C1.30179 -0.853333 6.30053 -0.852377 6.43227 2.6328C6.43227 4.08371 5.25183 5.26415 3.80089 5.26415ZM3.80089 0.781049C2.77985 0.781049 1.94917 1.61173 1.94917 2.63276C2.04227 5.08594 5.55988 5.08527 5.6526 2.63274C5.6526 1.61173 4.82192 0.781049 3.80089 0.781049ZM7.95263 9.98115H5.02859C4.47632 9.98115 3.95967 9.7666 3.57383 9.37704C2.29866 8.08345 3.21879 5.8874 5.03616 5.88788H7.96888C8.5112 5.88788 9.02107 6.09908 9.40455 6.48258C9.78756 6.86563 9.99869 7.37473 9.99916 7.91635C10.0324 9.01931 9.05572 10.0047 7.95263 9.98115ZM5.0354 6.66755C3.9163 6.6611 3.33737 8.04168 4.12778 8.82839C4.36607 9.06897 4.68599 9.20148 5.02859 9.20148H7.95263C8.29167 9.20148 8.61088 9.06769 8.85149 8.82476C9.09209 8.58186 9.22279 8.26124 9.21953 7.92198C9.21953 7.92073 9.21951 7.91949 9.21951 7.91822C9.23343 7.24597 8.64113 6.65366 7.9689 6.66755H5.03598C5.03581 6.66755 5.03557 6.66755 5.0354 6.66755ZM0.389835 9.98115C0.174529 9.98115 0 9.80662 0 9.59131V9.18199C0 7.76667 0.8337 6.48655 2.12398 5.92073C2.60464 5.73084 2.90246 6.40981 2.43709 6.63475C1.43024 7.07629 0.779669 8.07612 0.779669 9.18197V9.59129C0.779669 9.80662 0.60514 9.98115 0.389835 9.98115ZM8.51789 7.93452C8.49393 7.28866 7.56704 7.28914 7.5433 7.93452C7.56726 8.58037 8.49415 8.57989 8.51789 7.93452ZM6.95855 7.93452C6.93459 7.28866 6.0077 7.28914 5.98396 7.93452C6.00792 8.58037 6.93481 8.57989 6.95855 7.93452ZM5.39921 7.93452C5.37526 7.28866 4.44836 7.28914 4.42462 7.93452C4.44858 8.58037 5.37547 8.57989 5.39921 7.93452Z" fill="#353535"/>
</g>
<defs>
<clipPath id="clip0_33_810">
<rect width="10" height="10" fill="white"/>
</clipPath>
</defs>
</svg>
