<svg width="30" height="30" viewBox="0 0 30 30" fill="none" xmlns="http://www.w3.org/2000/svg">
<g clip-path="url(#clip0_33_1048)">
<path d="M10.1094 22.9631C10.1018 22.9256 10.0906 22.8887 10.076 22.8529C10.0613 22.8178 10.0432 22.7838 10.0221 22.7521C10.001 22.7199 9.97637 22.69 9.94941 22.6631C9.92246 22.6361 9.89258 22.6115 9.86035 22.5904C9.82871 22.5693 9.79473 22.5512 9.75898 22.5365C9.72383 22.5219 9.68691 22.5102 9.64941 22.5031C9.57383 22.4879 9.4959 22.4879 9.4209 22.5031C9.3834 22.5102 9.34648 22.5219 9.31074 22.5365C9.27559 22.5512 9.2416 22.5693 9.20996 22.5904C9.17773 22.6115 9.14785 22.6361 9.1209 22.6631C9.09394 22.69 9.06934 22.7199 9.04824 22.7521C9.02656 22.7838 9.00898 22.8178 8.99434 22.8529C8.97969 22.8887 8.96797 22.9256 8.96094 22.9631C8.95332 23.0006 8.94922 23.0393 8.94922 23.0773C8.94922 23.1154 8.95332 23.1541 8.96094 23.1916C8.96797 23.2291 8.97969 23.266 8.99434 23.3012C9.00898 23.3369 9.02656 23.3709 9.04824 23.4025C9.06934 23.4348 9.09394 23.4646 9.1209 23.4916C9.14785 23.5186 9.17773 23.5432 9.20996 23.5643C9.2416 23.5854 9.27559 23.6036 9.31074 23.6182C9.34648 23.6329 9.3834 23.6446 9.4209 23.6516C9.4584 23.6592 9.49707 23.6633 9.53516 23.6633C9.57324 23.6633 9.61191 23.6592 9.64941 23.6516C9.68691 23.6446 9.72383 23.6329 9.75898 23.6182C9.79473 23.6036 9.82871 23.5854 9.86035 23.5643C9.89258 23.5432 9.92246 23.5186 9.94941 23.4916C9.97637 23.4646 10.001 23.4348 10.0221 23.4025C10.0432 23.3709 10.0613 23.3369 10.076 23.3012C10.0906 23.266 10.1018 23.2291 10.1094 23.1916C10.117 23.1541 10.1211 23.1154 10.1211 23.0773C10.1211 23.0393 10.117 23.0006 10.1094 22.9631Z" fill="black"/>
<path d="M26.9527 23.1437C26.9504 23.1378 26.9481 23.132 26.9456 23.1263C26.4063 21.8643 25.1415 21.3979 23.6447 21.9091L19.5626 23.038C19.3266 22.3233 18.7379 21.7151 17.9055 21.4062C17.9003 21.4043 17.8952 21.4024 17.89 21.4007L13.4028 19.8777C13.0293 19.3949 11.8594 18.1597 9.66902 18.1597C8.13826 18.1597 6.7841 19.2098 6.00937 20.3544H0.585938C0.262324 20.3544 0 20.6167 0 20.9404V28.3277C0 28.6513 0.262324 28.9136 0.585938 28.9136H4.06975C4.39336 28.9136 4.65568 28.6513 4.65568 28.3277V27.8218H6.28945C6.61307 27.8218 6.87539 27.5595 6.87539 27.2358V27.0672C7.82777 27.1503 8.14102 27.3309 9.0157 27.8353C9.68836 28.2232 10.705 28.8094 12.5358 29.6326C12.5443 29.6364 12.5529 29.6401 12.5616 29.6435C12.9129 29.7817 13.5998 29.9988 14.4467 29.9988C15.0362 29.9988 15.7032 29.8935 16.388 29.5832L25.4109 26.3525C25.4269 26.3468 25.4428 26.3404 25.4582 26.3332C26.3205 25.9365 27.6056 24.8183 26.9527 23.1437ZM3.48381 27.7417H1.17188V21.5262H3.48381V27.7417ZM5.70352 26.6498H4.65568V21.5262H5.70352V26.6498ZM24.99 25.2584L15.9711 28.4876C15.9632 28.4904 15.9525 28.4946 15.9447 28.4978C15.9368 28.501 15.9289 28.5044 15.9211 28.508C14.665 29.0852 13.4711 28.7396 13.0031 28.5577C11.2346 27.762 10.2908 27.2177 9.60111 26.82C8.64228 26.2671 8.18027 26.0006 6.87539 25.8929V21.1736C7.4308 20.2633 8.50787 19.3315 9.66908 19.3315C11.6604 19.3315 12.5043 20.6267 12.5374 20.679C12.609 20.7953 12.7189 20.883 12.8483 20.9269L17.505 22.5074C18.2487 22.7866 18.6418 23.4235 18.4611 24.0587C18.3778 24.352 18.1851 24.5953 17.9187 24.7437C17.6546 24.8908 17.3494 24.9272 17.0584 24.8467L11.8088 23.1831C11.5001 23.0853 11.171 23.2562 11.0732 23.5646C10.9754 23.8731 11.1463 24.2024 11.4548 24.3002L16.7135 25.9667C16.7191 25.9685 16.7246 25.9702 16.7303 25.9717C16.9402 26.0314 17.154 26.061 17.3664 26.061C17.7554 26.061 18.14 25.9619 18.4891 25.7674C19.029 25.4666 19.4193 24.9736 19.5883 24.3792C19.6018 24.3317 19.6137 24.2842 19.6241 24.2368L24.0235 23.018C24.6589 22.801 25.493 22.7228 25.8643 23.5781C26.2487 24.5822 25.2497 25.1346 24.99 25.2584Z" fill="black"/>
<path d="M21.0396 7.70771C21.032 7.67021 21.0209 7.6333 21.0057 7.59756C20.991 7.5624 20.9734 7.52842 20.9518 7.49678C20.9307 7.46455 20.9061 7.43467 20.8791 7.40771C20.8521 7.38076 20.8223 7.35615 20.79 7.33506C20.7584 7.31396 20.7244 7.2958 20.6893 7.28115C20.6535 7.2665 20.6166 7.25479 20.5797 7.24775C20.5041 7.23252 20.4262 7.23252 20.3506 7.24775C20.3131 7.25479 20.2762 7.2665 20.241 7.28115C20.2053 7.2958 20.1713 7.31396 20.1396 7.33506C20.1074 7.35615 20.0775 7.38076 20.0506 7.40771C20.0236 7.43467 19.999 7.46455 19.9779 7.49678C19.9568 7.52842 19.9387 7.5624 19.924 7.59756C19.9094 7.6333 19.8977 7.67021 19.8906 7.70771C19.883 7.74521 19.8789 7.78389 19.8789 7.82197C19.8789 7.86006 19.883 7.89873 19.8906 7.93623C19.8977 7.97373 19.9094 8.01064 19.924 8.0458C19.9387 8.08154 19.9568 8.11553 19.9779 8.14717C19.999 8.17939 20.0236 8.20928 20.0506 8.23623C20.0775 8.26318 20.1074 8.28779 20.1396 8.30889C20.1713 8.32998 20.2053 8.34814 20.241 8.36279C20.2762 8.37744 20.3131 8.38857 20.3506 8.39619C20.3881 8.40381 20.4268 8.40791 20.4648 8.40791C20.5029 8.40791 20.5416 8.40381 20.5797 8.39619C20.6166 8.38857 20.6535 8.37744 20.6893 8.36279C20.7244 8.34814 20.7584 8.32998 20.79 8.30889C20.8223 8.28779 20.8521 8.26318 20.8791 8.23623C20.9061 8.20928 20.9307 8.17939 20.9518 8.14717C20.9734 8.11553 20.991 8.08154 21.0057 8.0458C21.0209 8.01064 21.032 7.97373 21.0396 7.93623C21.0473 7.89873 21.0508 7.86006 21.0508 7.82197C21.0508 7.78389 21.0473 7.74521 21.0396 7.70771Z" fill="black"/>
<path d="M29.4146 1.9859H25.9308C25.6072 1.9859 25.3449 2.24823 25.3449 2.57184V3.07774H23.7111C23.3875 3.07774 23.1252 3.34006 23.1252 3.66368V3.83231C22.1728 3.74917 21.8595 3.56858 20.9849 3.0642C20.3122 2.67631 19.2956 2.09008 17.4647 1.2669C17.4562 1.26303 17.4477 1.25946 17.4389 1.25606C16.843 1.02157 15.281 0.5602 13.6128 1.31624L11.255 2.16045L9.26755 0.173071C9.03875 -0.0557373 8.66773 -0.0557373 8.43892 0.173071L1.91404 6.6979C1.70298 6.90901 1.6625 7.27504 1.91404 7.52659L13.0637 18.6762C13.2421 18.8547 13.6599 18.9087 13.8924 18.6762L19.8493 12.7193C20.0042 12.7327 20.1649 12.7399 20.3315 12.7399C21.8623 12.7399 23.2164 11.6898 23.9911 10.5452H29.4146C29.7382 10.5452 30.0005 10.2829 30.0005 9.95928V2.57184C30.0005 2.24823 29.7382 1.9859 29.4146 1.9859ZM8.85318 1.41602L10.1886 2.75149C9.79168 2.997 9.33271 3.12836 8.85318 3.12836C8.37359 3.12836 7.91468 2.99706 7.51771 2.75149L8.85318 1.41602ZM4.49252 8.44774L3.15705 7.11221L4.49252 5.77674C4.73802 6.17372 4.86939 6.63268 4.86939 7.11221C4.86939 7.59174 4.73808 8.05071 4.49252 8.44774ZM13.478 17.4332L12.1428 16.098C12.958 15.5949 13.9979 15.5949 14.8132 16.098L13.478 17.4332ZM15.6574 15.2539C14.3626 14.3146 12.5935 14.3146 11.2986 15.2539L5.33668 9.29184C5.79423 8.66254 6.04127 7.90663 6.04127 7.11221C6.04127 6.31774 5.79429 5.56188 5.33668 4.93258L6.67361 3.59571C7.30291 4.05327 8.05877 4.3003 8.85324 4.3003C9.64771 4.3003 10.4036 4.05327 11.0329 3.59571L12.3002 4.86303C12.0267 4.9034 11.7601 4.99352 11.5114 5.13209C11.0914 5.36612 10.7619 5.71657 10.5567 6.14055C9.89574 6.26295 9.28384 6.58293 8.80384 7.06288C7.5016 8.36518 7.5016 10.4841 8.8039 11.7864C9.455 12.4375 10.3103 12.7631 11.1656 12.7631C12.0209 12.7631 12.8763 12.4376 13.5274 11.7864C13.9511 11.3628 14.2478 10.8421 14.3965 10.2747L16.3749 10.9461C16.1521 11.9778 16.3803 13.0632 16.9955 13.9158L15.6574 15.2539ZM12.0951 9.49335C12.1002 9.49522 12.1054 9.49709 12.1106 9.49885L13.2822 9.89653C13.1937 10.2958 12.9935 10.663 12.6988 10.9578C11.8534 11.8031 10.4779 11.8032 9.63259 10.9578C8.7872 10.1124 8.7872 8.73696 9.63259 7.89157C9.8365 7.68754 10.0771 7.52811 10.3394 7.42001C10.4475 8.32012 11.0956 9.12245 12.0951 9.49335ZM17.8398 13.0714C17.6136 12.7029 17.4857 12.2822 17.4655 11.8529C17.7461 12.0558 18.0891 12.2546 18.4988 12.4124L17.8398 13.0714ZM23.1251 9.72567C22.5697 10.6361 21.4927 11.5679 20.3315 11.5679C20.1142 11.5679 19.9106 11.5524 19.7202 11.5249C19.7194 11.5248 19.7187 11.5247 19.7179 11.5246C18.4525 11.3407 17.7719 10.6216 17.5475 10.3368C17.5355 10.3192 17.4846 10.2526 17.4771 10.2415C17.4088 10.1195 17.2969 10.0215 17.1542 9.97299L12.4955 8.39184C11.752 8.11282 11.3591 7.4762 11.5392 6.84127C11.5393 6.84086 11.5394 6.84045 11.5395 6.84004C11.5397 6.83958 11.5398 6.83905 11.5399 6.83858C11.6237 6.5462 11.816 6.30368 12.0818 6.15561C12.3458 6.00848 12.651 5.97198 12.9421 6.05266L18.1917 7.7162C18.5002 7.81411 18.8295 7.64313 18.9273 7.33463C19.025 7.02614 18.8542 6.69684 18.5457 6.59905L14.3706 5.276L14.3342 5.23956C14.3338 5.2392 14.3335 5.23879 14.333 5.23844L12.1715 3.07692L14.0294 2.41165C14.0357 2.40936 14.0434 2.40649 14.0496 2.40397C14.0512 2.40333 14.0543 2.40215 14.0558 2.40151C14.0637 2.39829 14.0716 2.39489 14.0794 2.39131C15.3354 1.81405 16.5293 2.15957 16.9973 2.34157C18.7658 3.13733 19.7098 3.68161 20.3994 4.07928C21.3583 4.63223 21.8203 4.89866 23.1251 5.00641V9.72567ZM25.3449 9.37323H24.297V4.24961H25.3449V9.37323ZM28.8287 9.37323H26.5167V3.15778H28.8287V9.37323Z" fill="black"/>
</g>
<defs>
<clipPath id="clip0_33_1048">
<rect width="30" height="30" fill="white"/>
</clipPath>
</defs>
</svg>
