<svg width="21" height="21" viewBox="0 0 21 21" fill="none" xmlns="http://www.w3.org/2000/svg">
<g clip-path="url(#clip0_280_848)">
<path d="M17.6008 2.82016C15.9111 1.13054 13.6646 0.200101 11.2752 0.200195C10.8837 0.200195 10.5664 0.517555 10.5664 0.90901C10.5664 1.30046 10.8838 1.61782 11.2752 1.61782C13.286 1.61773 15.1764 2.40073 16.5983 3.82261C18.0203 5.2445 18.8033 7.13505 18.8032 9.1459C18.8032 9.53736 19.1205 9.85472 19.512 9.85472C19.9035 9.85472 20.2208 9.53736 20.2208 9.146C20.2209 6.75635 19.2905 4.50979 17.6008 2.82016Z" fill="black"/>
<path d="M14.685 9.14616C14.685 9.53761 15.0024 9.85497 15.3939 9.85488C15.7854 9.85488 16.1026 9.53752 16.1026 9.14606C16.1024 6.4847 13.9369 4.31923 11.2753 4.31885C11.2752 4.31885 11.2754 4.31885 11.2753 4.31885C10.8839 4.31885 10.5665 4.63611 10.5664 5.02757C10.5664 5.41902 10.8837 5.73638 11.2751 5.73648C13.1552 5.73676 14.6848 7.26629 14.685 9.14616Z" fill="black"/>
<path d="M13.1175 12.76C12.0371 12.7041 11.4866 13.5076 11.2227 13.8936C11.0016 14.2167 11.0844 14.6578 11.4075 14.8788C11.7307 15.0999 12.1717 15.0171 12.3928 14.694C12.7047 14.238 12.846 14.1662 13.0376 14.1753C13.6511 14.2474 16.0672 16.0179 16.3091 16.5716C16.3698 16.7346 16.3675 16.8944 16.3024 17.0888C16.0488 17.8417 15.6289 18.3707 15.0879 18.6187C14.574 18.8543 13.9439 18.833 13.2661 18.5572C10.7355 17.5257 8.52456 16.0863 6.69487 14.2787C6.69412 14.2779 6.69336 14.2773 6.6927 14.2765C4.88891 12.4486 3.45209 10.2405 2.42233 7.71375C2.14646 7.03546 2.1251 6.40528 2.36071 5.89143C2.6087 5.35047 3.13776 4.93057 3.88995 4.67719C4.08502 4.61179 4.24455 4.60971 4.40606 4.66982C4.96168 4.91261 6.73211 7.32863 6.80356 7.93518C6.81376 8.13403 6.74147 8.27522 6.28584 8.58654C5.96262 8.80731 5.87955 9.24838 6.10041 9.5716C6.32119 9.89482 6.76216 9.9778 7.08548 9.75702C7.47164 9.49335 8.27496 8.94444 8.2192 7.86033C8.15777 6.72793 5.95496 3.72908 4.90242 3.34207C4.43432 3.1676 3.94193 3.16458 3.43839 3.33356C2.30542 3.71509 1.48717 4.39536 1.07208 5.30076C0.669478 6.17912 0.682237 7.1982 1.10942 8.24838C2.21148 10.9525 3.75339 13.3185 5.69223 15.281C5.69696 15.2858 5.70178 15.2905 5.70669 15.2951C7.66774 17.2304 10.031 18.7695 12.7315 19.8702C13.2723 20.0901 13.8048 20.2002 14.3142 20.2002C14.7937 20.2002 15.2528 20.1027 15.6787 19.9074C16.5842 19.4924 17.2643 18.6743 17.6461 17.5406C17.8148 17.038 17.812 16.5458 17.6389 16.0798C17.2505 15.0245 14.2517 12.8217 13.1175 12.76Z" fill="black"/>
</g>
<defs>
<clipPath id="clip0_280_848">
<rect width="20" height="20" fill="white" transform="translate(0.5 0.200195)"/>
</clipPath>
</defs>
</svg>
