<svg width="30" height="30" viewBox="0 0 30 30" fill="none" xmlns="http://www.w3.org/2000/svg">
<path d="M14.7714 5.42754H14.8326C15.2919 5.42754 15.6656 5.05389 15.6656 4.59459V4.07848C15.6656 3.83586 15.4689 3.63916 15.2263 3.63916C14.9836 3.63916 14.7869 3.83586 14.7869 4.07848V4.5489H14.7714C14.5287 4.5489 14.332 4.7456 14.332 4.98822C14.332 5.23084 14.5288 5.42754 14.7714 5.42754Z" fill="black"/>
<path d="M29.4872 8.08675H26.3208C26.0781 8.08675 25.8815 8.28345 25.8815 8.52607C25.8815 8.7687 26.0781 8.96539 26.3208 8.96539H29.1161V29.1214H0.882545V8.96539H7.35893C7.95289 12.6759 11.1726 15.4755 14.9993 15.4755C18.8127 15.4755 22.0443 12.6853 22.6397 8.96539H24.2706C24.5132 8.96539 24.7099 8.7687 24.7099 8.52607C24.7099 8.28345 24.5132 8.08675 24.2706 8.08675H22.7293C22.7345 7.97107 22.7371 7.85468 22.7371 7.73776C22.7371 3.47109 19.266 0 14.9994 0C14.992 0 14.9846 0 14.9773 5.85759e-05C12.436 0.00732199 10.0601 1.26214 8.61831 3.35997C8.48089 3.55995 8.53156 3.83344 8.73154 3.97086C8.93152 4.1084 9.20507 4.05761 9.34243 3.85763C10.1302 2.71142 11.2324 1.84907 12.4896 1.35451C12.1334 1.89388 11.9633 2.53019 12.0055 3.19104C12.0564 3.98755 12.122 5.01667 12.1519 5.48505C12.2042 6.30353 12.6012 7.02512 13.1955 7.51142V7.84554C13.1955 8.1038 13.0205 8.32791 12.77 8.39053C12.766 8.39153 12.7619 8.39264 12.7579 8.39375C12.7537 8.39469 12.7495 8.39563 12.7453 8.39668L11.273 8.76477C10.2624 9.01741 9.55646 9.92147 9.55646 10.9632V11.9071C8.66863 10.7508 8.14039 9.30484 8.14039 7.7377C8.14039 6.99765 8.25749 6.26985 8.48833 5.57449C8.56483 5.34423 8.44013 5.09558 8.20986 5.01913C7.9796 4.94263 7.73095 5.06734 7.6545 5.2976C7.34839 6.21947 7.22842 7.16524 7.26954 8.08675H0.511584C0.231649 8.08675 0.00390625 8.3145 0.00390625 8.59437V29.4924C0.00390625 29.7723 0.231649 30 0.511584 30H29.4872C29.7671 30 29.9948 29.7723 29.9948 29.4924V8.59437C29.9948 8.31444 29.7671 8.08675 29.4872 8.08675ZM21.8585 7.7377C21.8585 9.30478 21.3302 10.7508 20.4424 11.9071V10.9632C20.4424 9.92141 19.7365 9.01741 18.7259 8.76477L17.2535 8.39668C17.2494 8.39563 17.2451 8.39469 17.241 8.39375C17.2369 8.39264 17.233 8.39153 17.2289 8.39053C16.9783 8.32791 16.8034 8.10374 16.8034 7.84554V7.51142C17.3977 7.02512 17.7947 6.30353 17.8469 5.48505L17.9933 3.19104C18.034 2.55291 17.8738 1.90858 17.5101 1.35445C20.0539 2.3585 21.8585 4.84136 21.8585 7.7377ZM17.0431 2.42604H16.0243C15.4808 2.42604 14.9698 2.21434 14.5855 1.83015C14.4665 1.71106 14.2963 1.65612 14.1302 1.683C13.9641 1.70995 13.82 1.81591 13.7447 1.96639L13.6421 2.17164C13.4703 2.51525 13.2035 2.79454 12.878 2.98069C12.8816 2.44636 13.0826 1.94267 13.4524 1.54845C13.8576 1.11657 14.4071 0.878639 14.9994 0.878639C15.9698 0.878639 16.793 1.52907 17.0431 2.42604ZM12.9327 3.92488C13.5122 3.70129 14.0006 3.29191 14.3223 2.75676C14.8148 3.11266 15.4047 3.30468 16.0242 3.30468H17.1056L16.9701 5.42911C16.9039 6.4659 16.0383 7.27806 14.9994 7.27806C13.9605 7.27806 13.0949 6.4659 13.0287 5.42911L12.9327 3.92488ZM15.9329 7.99924C15.976 8.40517 16.1882 8.76653 16.5063 9.00241C16.1376 9.44326 15.5915 9.70404 14.9995 9.70404C14.4073 9.70404 13.8613 9.4432 13.4926 9.00235C13.8107 8.76647 14.0229 8.40511 14.066 7.99924C14.6686 8.209 15.3289 8.20947 15.9329 7.99924ZM11.486 9.61717L12.64 9.32868C13.1652 10.1101 14.0405 10.5827 14.9994 10.5827C15.9583 10.5827 16.8336 10.1101 17.3588 9.32868L18.5128 9.61717C19.1316 9.77187 19.5637 10.3253 19.5637 10.9632V12.8534C19.2715 13.1145 18.9567 13.351 18.6229 13.5595V12.2661C18.6229 12.0235 18.4262 11.8268 18.1836 11.8268C17.941 11.8268 17.7443 12.0235 17.7443 12.2661V14.0235C16.9033 14.3921 15.9749 14.5968 14.9995 14.5968C14.024 14.5968 13.0956 14.3921 12.2546 14.0235V12.2661C12.2546 12.0235 12.0579 11.8268 11.8153 11.8268C11.5727 11.8268 11.376 12.0235 11.376 12.2661V13.5595C11.0421 13.351 10.7275 13.1145 10.4352 12.8534V10.9632C10.435 10.3253 10.8672 9.77187 11.486 9.61717Z" fill="black"/>
<path d="M3.73764 17.0522H8.46964C8.745 17.0522 8.969 16.8282 8.969 16.5528V15.0555C8.969 14.7801 8.745 14.5562 8.46964 14.5562H3.73764C3.46228 14.5562 3.23828 14.7801 3.23828 15.0555V16.5528C3.23828 16.8282 3.46228 17.0522 3.73764 17.0522ZM4.11692 15.4348H8.0903V16.1736H4.11692V15.4348Z" fill="black"/>
<path d="M15.4384 23.0221V21.5247C15.4384 21.2494 15.2144 21.0254 14.939 21.0254H3.73764C3.46228 21.0254 3.23828 21.2494 3.23828 21.5247V23.0221C3.23828 23.2974 3.46228 23.5214 3.73764 23.5214H14.939C15.2144 23.5214 15.4384 23.2974 15.4384 23.0221ZM14.5597 22.6428H4.11692V21.9041H14.5597V22.6428Z" fill="black"/>
<path d="M18.1291 26.679C18.0542 26.4483 17.8063 26.3217 17.5756 26.3969L17.4532 26.4367V26.308C17.4532 26.0654 17.2565 25.8687 17.0139 25.8687C16.7712 25.8687 16.5745 26.0654 16.5745 26.308V26.4367L16.4521 26.3969C16.2214 26.3218 15.9735 26.4483 15.8986 26.679C15.8236 26.9097 15.9499 27.1576 16.1806 27.2325L16.303 27.2723L16.2274 27.3765C16.0847 27.5727 16.1283 27.8475 16.3246 27.9901C16.5201 28.1321 16.795 28.09 16.9382 27.8929L17.0139 27.7887L17.0896 27.8929C17.2326 28.0897 17.5075 28.1323 17.7032 27.9901C17.8995 27.8475 17.943 27.5727 17.8005 27.3765L17.7248 27.2723L17.8472 27.2325C18.0778 27.1576 18.2041 26.9098 18.1291 26.679Z" fill="black"/>
<path d="M20.9983 26.679C20.9233 26.4483 20.6754 26.3217 20.4447 26.3969L20.3223 26.4367V26.308C20.3223 26.0654 20.1256 25.8687 19.883 25.8687C19.6404 25.8687 19.4437 26.0654 19.4437 26.308V26.4367L19.3213 26.3969C19.0904 26.3218 18.8426 26.4483 18.7677 26.679C18.6927 26.9097 18.819 27.1576 19.0498 27.2325L19.1722 27.2723L19.0965 27.3765C18.9539 27.5727 18.9974 27.8475 19.1937 27.9901C19.3892 28.1321 19.6642 28.09 19.8074 27.8929L19.8831 27.7887L19.9587 27.8929C20.1018 28.0897 20.3766 28.1323 20.5724 27.9901C20.7687 27.8475 20.8122 27.5727 20.6696 27.3765L20.5939 27.2723L20.7164 27.2325C20.947 27.1576 21.0733 26.9098 20.9983 26.679Z" fill="black"/>
<path d="M15.2581 26.679C15.1831 26.4483 14.9352 26.3217 14.7045 26.3969L14.5821 26.4367V26.308C14.5821 26.0654 14.3854 25.8687 14.1428 25.8687C13.9001 25.8687 13.7034 26.0654 13.7034 26.308V26.4367L13.581 26.3969C13.3503 26.3218 13.1024 26.4483 13.0275 26.679C12.9525 26.9097 13.0788 27.1576 13.3095 27.2325L13.4319 27.2723L13.3563 27.3765C13.2136 27.5727 13.2572 27.8475 13.4535 27.9901C13.649 28.1321 13.9239 28.09 14.0671 27.8929L14.1428 27.7887L14.2185 27.8929C14.3615 28.0897 14.6364 28.1323 14.8321 27.9901C15.0284 27.8475 15.072 27.5727 14.9294 27.3765L14.8537 27.2723L14.9761 27.2325C15.2067 27.1576 15.333 26.9098 15.2581 26.679Z" fill="black"/>
<path d="M23.8694 26.679C23.7944 26.4483 23.5466 26.3217 23.3158 26.3969L23.1934 26.4367V26.308C23.1934 26.0654 22.9967 25.8687 22.7541 25.8687C22.5115 25.8687 22.3148 26.0654 22.3148 26.308V26.4367L22.1924 26.3969C21.9615 26.3218 21.7137 26.4483 21.6388 26.679C21.5638 26.9097 21.6901 27.1576 21.9209 27.2325L22.0433 27.2723L21.9676 27.3765C21.825 27.5727 21.8685 27.8475 22.0648 27.9901C22.2603 28.1321 22.5353 28.09 22.6785 27.8929L22.7542 27.7887L22.8298 27.8929C22.9729 28.0897 23.2477 28.1323 23.4435 27.9901C23.6398 27.8475 23.6833 27.5727 23.5407 27.3765L23.465 27.2723L23.5875 27.2325C23.8181 27.1576 23.9444 26.9098 23.8694 26.679Z" fill="black"/>
<path d="M26.7385 26.679C26.6635 26.4483 26.4157 26.3217 26.185 26.3969L26.0626 26.4367V26.308C26.0626 26.0654 25.8659 25.8687 25.6232 25.8687C25.3806 25.8687 25.1839 26.0654 25.1839 26.308V26.4367L25.0615 26.3969C24.8306 26.3218 24.5829 26.4483 24.5079 26.679C24.433 26.9097 24.5593 27.1576 24.79 27.2325L24.9124 27.2723L24.8367 27.3765C24.6941 27.5727 24.7377 27.8475 24.934 27.9901C25.1294 28.1321 25.4044 28.09 25.5476 27.8929L25.6233 27.7887L25.699 27.8929C25.842 28.0897 26.1169 28.1323 26.3126 27.9901C26.5089 27.8475 26.5524 27.5727 26.4098 27.3765L26.3342 27.2723L26.4566 27.2325C26.6872 27.1576 26.8135 26.9098 26.7385 26.679Z" fill="black"/>
<path d="M18.673 19.7877V18.2904C18.673 18.015 18.449 17.791 18.1737 17.791H3.73764C3.46228 17.791 3.23828 18.015 3.23828 18.2904V19.7877C3.23828 20.063 3.46228 20.287 3.73764 20.287H9.81056C10.0532 20.287 10.2499 20.0903 10.2499 19.8477C10.2499 19.6051 10.0532 19.4084 9.81056 19.4084H4.11692V18.6697H17.7944V19.4084H11.8607C11.6181 19.4084 11.4214 19.6051 11.4214 19.8477C11.4214 20.0903 11.6181 20.287 11.8607 20.287H18.1737C18.449 20.287 18.673 20.063 18.673 19.7877Z" fill="black"/>
<path d="M26.2608 17.791H19.9115C19.6361 17.791 19.4121 18.015 19.4121 18.2904V19.7877C19.4121 20.063 19.6361 20.287 19.9115 20.287H26.2608C26.5362 20.287 26.7602 20.063 26.7602 19.7877V18.2904C26.7602 18.015 26.5361 17.791 26.2608 17.791ZM25.8815 19.4084H20.2908V18.6697H25.8815V19.4084Z" fill="black"/>
</svg>
