<svg width="30" height="30" viewBox="0 0 30 30" fill="none" xmlns="http://www.w3.org/2000/svg">
<g clip-path="url(#clip0_33_1033)">
<path d="M13.3162 9.89581C13.1446 10.0674 13.1446 10.3457 13.3162 10.5173C13.6595 10.8605 14.1102 11.0321 14.5612 11.0321C15.012 11.0321 15.463 10.8605 15.8061 10.5173C15.9778 10.3456 15.9778 10.0674 15.8062 9.89581C15.6345 9.72418 15.3562 9.72418 15.1847 9.89581C14.8408 10.2396 14.2815 10.2396 13.9377 9.89581C13.7661 9.72418 13.4878 9.72418 13.3162 9.89581Z" fill="black"/>
<path d="M13.3887 8.9334C13.6314 8.9334 13.8281 8.73664 13.8281 8.49395V8.03516C13.8281 7.79246 13.6314 7.5957 13.3887 7.5957C13.146 7.5957 12.9492 7.79246 12.9492 8.03516V8.49395C12.9492 8.73664 13.146 8.9334 13.3887 8.9334Z" fill="black"/>
<path d="M15.7324 8.9334C15.9752 8.9334 16.1719 8.73664 16.1719 8.49395V8.03516C16.1719 7.79246 15.9752 7.5957 15.7324 7.5957C15.4897 7.5957 15.293 7.79246 15.293 8.03516V8.49395C15.293 8.73664 15.4897 8.9334 15.7324 8.9334Z" fill="black"/>
<path d="M24.2285 19.6841C26.5063 19.6841 28.3594 17.831 28.3594 15.5532C28.3594 13.2754 26.5063 11.4224 24.2285 11.4224C21.9507 11.4224 20.0977 13.2754 20.0977 15.5532C20.0977 17.831 21.9507 19.6841 24.2285 19.6841ZM24.2285 12.3013C26.0217 12.3013 27.4805 13.7601 27.4805 15.5532C27.4805 17.3464 26.0217 18.8052 24.2285 18.8052C22.4354 18.8052 20.9766 17.3464 20.9766 15.5532C20.9766 13.7601 22.4354 12.3013 24.2285 12.3013Z" fill="black"/>
<path d="M30 15.5531C30 12.3707 27.4109 9.78164 24.2285 9.78164C21.724 9.78164 19.5874 11.3853 18.7906 13.6195H17.7705L17.1597 12.3752C17.6578 11.9398 18.0071 11.3389 18.1211 10.6588H18.2536C19.2058 10.6588 19.9805 9.88418 19.9805 8.93203C19.9805 8.43246 19.767 7.98205 19.4268 7.66646V5.83008C19.4268 3.64922 17.6526 1.875 15.4717 1.875H13.6494C11.4685 1.875 9.69428 3.64922 9.69428 5.83008V7.66646C9.35408 7.98205 9.14062 8.43252 9.14062 8.93209C9.14062 9.88424 9.91529 10.6589 10.8674 10.6589H11C11.1139 11.339 11.4633 11.9399 11.9614 12.3753L11.3505 13.6196H10.5859V13.1913C10.5859 11.8785 9.51785 10.8105 8.20506 10.8105H7.76367C8.14061 10.3005 8.36402 9.67049 8.36402 8.98904C8.36402 7.29568 6.98637 5.91803 5.29301 5.91803C3.59965 5.91803 2.22199 7.29568 2.22199 8.98904C2.22199 9.67043 2.44535 10.3005 2.82234 10.8105H2.3809C1.06805 10.8104 0 11.8785 0 13.1913V13.6523C0 13.895 0.196758 14.0918 0.439453 14.0918C0.682148 14.0918 0.878906 13.895 0.878906 13.6523V13.1913C0.878906 12.3631 1.55268 11.6893 2.38084 11.6893H3.69211L4.35592 13.4363L3.60158 17.1581H1.02539C0.944648 17.1581 0.878906 17.0924 0.878906 17.0116V15.7031C0.878906 15.4604 0.682148 15.2637 0.439453 15.2637C0.196758 15.2637 0 15.4604 0 15.7031V17.0116C0 17.577 0.46002 18.037 1.02539 18.037H6.32906V18.9258C6.32906 19.1685 6.52582 19.3652 6.76852 19.3652C7.01121 19.3652 7.20797 19.1685 7.20797 18.9258V16.3175C7.20797 15.3145 8.024 14.4984 9.02707 14.4984H11.3819L12.5355 16.3293C12.6328 16.4837 12.7922 16.5863 12.9729 16.6109C13.029 16.6185 13.0848 16.6175 13.1395 16.61L13.4054 17.2102L12.6301 23.5547H7.35445C7.27371 23.5547 7.20797 23.4889 7.20797 23.4082V20.9766C7.20797 20.7339 7.01121 20.5371 6.76852 20.5371C6.52582 20.5371 6.32906 20.7339 6.32906 20.9766V23.4082C6.32906 23.9736 6.78908 24.4336 7.35445 24.4336H20.2458V27.3922C20.2458 27.6569 20.3827 27.894 20.612 28.0264C20.7267 28.0927 20.8525 28.1258 20.9782 28.1258C21.1039 28.1258 21.2298 28.0927 21.3444 28.0264L24.2286 26.3613L27.1127 28.0264C27.3421 28.1589 27.6158 28.1589 27.8452 28.0264C28.0744 27.894 28.2114 27.6569 28.2114 27.3922V19.7264C29.3128 18.6747 30 17.1927 30 15.5531ZM24.2285 10.6605C26.9263 10.6605 29.1211 12.8553 29.1211 15.5531C29.1211 18.2509 26.9263 20.4457 24.2285 20.4457C21.5307 20.4457 19.3359 18.2509 19.3359 15.5531C19.3359 12.8553 21.5307 10.6605 24.2285 10.6605ZM16.9941 14.0323L16.0096 15.5947L15.2092 14.8676L16.1223 14.0154C16.2702 13.8775 16.3551 13.6822 16.3551 13.48V12.8759C16.3748 12.8677 16.3943 12.859 16.4138 12.8504L16.9941 14.0323ZM13.8712 16.092L14.5605 15.4658L15.2498 16.0919L14.9788 16.7036H14.1423L13.8712 16.092ZM11.838 7.25877C11.838 7.01642 12.0351 6.81932 12.2774 6.81932H16.8437C17.086 6.81932 17.2831 7.01642 17.2831 7.25877V10.1743C17.2831 11.3019 16.3658 12.2193 15.2381 12.2193H13.883C12.7554 12.2193 11.838 11.3019 11.838 10.1743L11.838 7.25877ZM13.6448 13.0876C13.7235 13.094 13.8027 13.0982 13.883 13.0982H15.2381C15.3183 13.0982 15.3976 13.094 15.4762 13.0876V13.4163L14.5605 14.2709L13.6448 13.4163V13.0876ZM18.2536 9.77994H18.162V8.08412H18.2536C18.7211 8.08412 19.1016 8.46451 19.1016 8.93203C19.1016 9.39955 18.7212 9.77994 18.2536 9.77994ZM10.5732 5.83008C10.5732 4.13385 11.9531 2.75391 13.6494 2.75391H15.4717C17.1679 2.75391 18.5479 4.13385 18.5479 5.83008V7.23082C18.4522 7.2143 18.354 7.20521 18.2537 7.20521H18.1607C18.1324 6.50303 17.5526 5.94041 16.8437 5.94041H12.2774C11.5685 5.94041 10.9887 6.50303 10.9604 7.20521H10.8674C10.7671 7.20521 10.6689 7.2143 10.5732 7.23082V5.83008ZM10.0195 8.93203C10.0195 8.46451 10.3999 8.08412 10.8674 8.08412H10.9591V9.77994H10.8674C10.3999 9.77994 10.0195 9.39961 10.0195 8.93203ZM5.46574 12.9595H5.115L4.75488 12.0118C4.92973 12.0428 5.10938 12.0599 5.29301 12.0599C5.47207 12.0599 5.64732 12.0437 5.81807 12.0141L5.46574 12.9595ZM5.29295 6.79687C6.50168 6.79687 7.48506 7.78025 7.48506 8.98898C7.48506 10.1977 6.50168 11.1811 5.29295 11.1811C4.08422 11.1811 3.10084 10.1977 3.10084 8.98898C3.10084 7.78025 4.08428 6.79687 5.29295 6.79687ZM4.49836 17.1581L5.17119 13.8385H5.4099L6.06662 17.1581H4.49836ZM6.57434 15.1956L6.22617 13.4358L6.87697 11.6893H8.20506C9.03322 11.6893 9.70699 12.363 9.70699 13.1912V13.6195H9.02701C7.93957 13.6195 7.00102 14.2666 6.57434 15.1956ZM12.127 14.0323L12.7072 12.8504C12.7267 12.859 12.7463 12.8677 12.766 12.8759V13.4799C12.766 13.6822 12.8508 13.8773 12.9987 14.0153L13.9119 14.8676L13.1115 15.5947L12.127 14.0323ZM13.5155 23.5547L14.2454 17.5825H14.8758L15.6056 23.5547H13.5155ZM16.491 23.5547L15.7157 17.2102L15.9815 16.6103C16.0089 16.6141 16.0366 16.6166 16.0646 16.6166C16.0924 16.6166 16.1203 16.6147 16.1483 16.6109C16.3291 16.5862 16.4885 16.4836 16.5857 16.3293L17.7393 14.4984H18.554C18.4905 14.8405 18.4571 15.1929 18.4571 15.5531C18.4571 17.1927 19.1443 18.6747 20.2458 19.7264V23.5547H16.491ZM23.8623 25.5578L23.4869 25.7746V24.0234C23.4869 23.7807 23.2902 23.5839 23.0474 23.5839C22.8047 23.5839 22.608 23.7807 22.608 24.0234V26.282L21.1247 27.1384V20.417C21.5797 20.7084 22.0782 20.9374 22.608 21.0926V21.9726C22.608 22.2153 22.8047 22.4121 23.0474 22.4121C23.2902 22.4121 23.4869 22.2153 23.4869 21.9726V21.277C23.7298 21.3083 23.9773 21.3246 24.2285 21.3246C24.4798 21.3246 24.7273 21.3083 24.9701 21.277V25.7746L24.5948 25.5578C24.3688 25.4273 24.0881 25.4274 23.8623 25.5578ZM27.3324 27.1384L25.8491 26.282V21.0926C26.3788 20.9374 26.8774 20.7084 27.3324 20.417V27.1384Z" fill="black"/>
<path d="M22.0331 15.5521L22.5649 16.0704L22.4392 16.8025C22.3887 17.0973 22.5077 17.3897 22.7497 17.5655C22.8865 17.6648 23.0464 17.7154 23.2075 17.7154C23.3315 17.7154 23.4561 17.6855 23.5713 17.6249L24.2287 17.2794L24.8861 17.6249C25.151 17.7642 25.4657 17.7414 25.7077 17.5656C25.9497 17.3897 26.0687 17.0974 26.0181 16.8025L25.8925 16.0706L26.4243 15.5522C26.6385 15.3434 26.7142 15.037 26.6218 14.7524C26.5293 14.4679 26.288 14.2644 25.9918 14.2213L25.257 14.1145L24.9283 13.4486C24.7959 13.1803 24.5278 13.0137 24.2287 13.0137C23.9295 13.0137 23.6614 13.1804 23.5291 13.4486L23.2004 14.1145L22.4655 14.2213C22.1694 14.2644 21.9281 14.4679 21.8356 14.7524C21.7432 15.0369 21.8189 15.3433 22.0331 15.5521ZM23.3781 14.9767C23.6324 14.9398 23.852 14.7802 23.9655 14.5499L24.2287 14.0168L24.4918 14.5498C24.6054 14.7802 24.8251 14.9398 25.0793 14.9767L25.6676 15.0622L25.2419 15.4772C25.058 15.6564 24.9741 15.9145 25.0175 16.1678L25.118 16.7538L24.5917 16.4771C24.3644 16.3577 24.093 16.3577 23.8656 16.4771L23.3393 16.7538L23.4399 16.1678C23.4833 15.9146 23.3994 15.6564 23.2155 15.4772L22.7897 15.0622L23.3781 14.9767Z" fill="black"/>
</g>
<defs>
<clipPath id="clip0_33_1033">
<rect width="30" height="30" fill="white"/>
</clipPath>
</defs>
</svg>
