<svg width="30" height="30" viewBox="0 0 30 30" fill="none" xmlns="http://www.w3.org/2000/svg">
<path fill-rule="evenodd" clip-rule="evenodd" d="M20 1.66667C20 1.22464 20.1756 0.800716 20.4882 0.488155C20.8007 0.175595 21.2246 0 21.6667 0H25C26.3261 0 27.5979 0.526784 28.5355 1.46447C29.4732 2.40215 30 3.67392 30 5V8.33333C30 8.77536 29.8244 9.19928 29.5118 9.51184C29.1993 9.8244 28.7754 10 28.3333 10C27.8913 10 27.4674 9.8244 27.1548 9.51184C26.8423 9.19928 26.6667 8.77536 26.6667 8.33333V5C26.6667 4.55797 26.4911 4.13405 26.1785 3.82149C25.866 3.50893 25.442 3.33333 25 3.33333H21.6667C21.2246 3.33333 20.8007 3.15774 20.4882 2.84518C20.1756 2.53262 20 2.10869 20 1.66667ZM0 15C0 14.337 0.263392 13.7011 0.732233 13.2322C1.20107 12.7634 1.83696 12.5 2.5 12.5H27.5C28.163 12.5 28.7989 12.7634 29.2678 13.2322C29.7366 13.7011 30 14.337 30 15C30 15.663 29.7366 16.2989 29.2678 16.7678C28.7989 17.2366 28.163 17.5 27.5 17.5H2.5C1.83696 17.5 1.20107 17.2366 0.732233 16.7678C0.263392 16.2989 0 15.663 0 15ZM8.33333 30C8.77536 30 9.19928 29.8244 9.51184 29.5118C9.8244 29.1993 10 28.7754 10 28.3333C10 27.8913 9.8244 27.4674 9.51184 27.1548C9.19928 26.8423 8.77536 26.6667 8.33333 26.6667H5C4.55797 26.6667 4.13405 26.4911 3.82149 26.1785C3.50893 25.866 3.33333 25.442 3.33333 25V21.6667C3.33333 21.2246 3.15774 20.8007 2.84518 20.4882C2.53262 20.1756 2.10869 20 1.66667 20C1.22464 20 0.800716 20.1756 0.488155 20.4882C0.175595 20.8007 0 21.2246 0 21.6667V25C0 26.3261 0.526784 27.5979 1.46447 28.5355C2.40215 29.4732 3.67392 30 5 30H8.33333ZM28.3333 20C28.7754 20 29.1993 20.1756 29.5118 20.4882C29.8244 20.8007 30 21.2246 30 21.6667V25C30 26.3261 29.4732 27.5979 28.5355 28.5355C27.5979 29.4732 26.3261 30 25 30H21.6667C21.2246 30 20.8007 29.8244 20.4882 29.5118C20.1756 29.1993 20 28.7754 20 28.3333C20 27.8913 20.1756 27.4674 20.4882 27.1548C20.8007 26.8423 21.2246 26.6667 21.6667 26.6667H25C25.442 26.6667 25.866 26.4911 26.1785 26.1785C26.4911 25.866 26.6667 25.442 26.6667 25V21.6667C26.6667 21.2246 26.8423 20.8007 27.1548 20.4882C27.4674 20.1756 27.8913 20 28.3333 20ZM0 8.33333C0 8.77536 0.175595 9.19928 0.488155 9.51184C0.800716 9.8244 1.22464 10 1.66667 10C2.10869 10 2.53262 9.8244 2.84518 9.51184C3.15774 9.19928 3.33333 8.77536 3.33333 8.33333V5C3.33333 4.55797 3.50893 4.13405 3.82149 3.82149C4.13405 3.50893 4.55797 3.33333 5 3.33333H8.33333C8.77536 3.33333 9.19928 3.15774 9.51184 2.84518C9.8244 2.53262 10 2.10869 10 1.66667C10 1.22464 9.8244 0.800716 9.51184 0.488155C9.19928 0.175595 8.77536 0 8.33333 0H5C3.67392 0 2.40215 0.526784 1.46447 1.46447C0.526784 2.40215 0 3.67392 0 5V8.33333Z" fill="black"/>
</svg>
