<svg width="20" height="21" viewBox="0 0 20 21" fill="none" xmlns="http://www.w3.org/2000/svg">
<path d="M18.3327 5.0337C17.7063 5.30545 17.0439 5.48509 16.366 5.56704C17.0812 5.1398 17.6171 4.46769 17.8743 3.67537C17.2023 4.07542 16.4667 4.35728 15.6993 4.5087C15.1865 3.95251 14.5035 3.58228 13.7575 3.45608C13.0116 3.32988 12.2448 3.45484 11.5775 3.81136C10.9102 4.16789 10.3801 4.73581 10.0704 5.42607C9.76064 6.11632 9.68876 6.88986 9.86602 7.62537C8.5072 7.55664 7.17805 7.20283 5.96489 6.58692C4.75174 5.97101 3.68172 5.10678 2.82435 4.05037C2.52363 4.57551 2.36561 5.17022 2.36602 5.77537C2.36495 6.33736 2.50286 6.89088 2.76748 7.38667C3.03209 7.88246 3.4152 8.30513 3.88268 8.61704C3.33933 8.60225 2.80759 8.45645 2.33268 8.19204V8.2337C2.33675 9.02111 2.61268 9.78295 3.11378 10.3903C3.61488 10.9977 4.3104 11.4134 5.08268 11.567C4.7854 11.6575 4.47674 11.7052 4.16602 11.7087C3.95092 11.7062 3.73637 11.6867 3.52435 11.6504C3.74427 12.3277 4.16987 12.9197 4.74191 13.3438C5.31395 13.768 6.004 14.0033 6.71602 14.017C5.51368 14.9631 4.02925 15.4794 2.49935 15.4837C2.22079 15.4846 1.94246 15.4679 1.66602 15.4337C3.22804 16.4423 5.04836 16.9776 6.90768 16.9754C8.19076 16.9887 9.46363 16.7462 10.6519 16.2621C11.8403 15.778 12.9202 15.0619 13.8287 14.1558C14.7372 13.2496 15.456 12.1715 15.9431 10.9845C16.4303 9.79739 16.676 8.52514 16.666 7.24204V6.80037C17.3199 6.31271 17.8839 5.71489 18.3327 5.0337Z" fill="black"/>
</svg>
