<svg width="20" height="21" viewBox="0 0 20 21" fill="none" xmlns="http://www.w3.org/2000/svg">
<g clip-path="url(#clip0_280_855)">
<path d="M18.4853 5.67677C18.2911 5.77076 18.2099 6.00435 18.3038 6.19853C18.9107 7.45271 19.2185 8.79904 19.2185 10.2003C19.2185 15.2835 15.083 19.419 9.99972 19.419C8.00718 19.419 6.05683 18.7644 4.46683 17.569C4.67448 17.1335 4.59847 16.5953 4.23827 16.2352C3.78136 15.7783 3.03792 15.7783 2.58097 16.2352C2.12405 16.6921 2.12405 17.4355 2.58097 17.8925C2.93444 18.246 3.46698 18.3308 3.90729 18.1247C5.64831 19.4649 7.80026 20.2003 9.99972 20.2003C15.5137 20.2003 19.9997 15.7143 19.9997 10.2003C19.9997 8.68021 19.6657 7.21935 19.0071 5.85826C18.9131 5.66408 18.6796 5.58283 18.4853 5.67677Z" fill="black"/>
<path d="M1.41602 14.5348C1.61227 14.4452 1.69867 14.2134 1.60902 14.0172C1.05973 12.8148 0.78125 11.5305 0.78125 10.2002C0.78125 5.11695 4.91676 0.981445 10 0.981445C11.9613 0.981445 13.817 1.58406 15.3935 2.72805C15.1195 3.17891 15.1768 3.77605 15.5661 4.16535C16.023 4.62227 16.7664 4.62227 17.2234 4.16535C17.6803 3.70844 17.6803 2.965 17.2234 2.50805C16.9001 2.18473 16.4334 2.09055 16.0261 2.22477C14.2916 0.910625 12.19 0.200195 10 0.200195C4.48598 0.200195 0 4.68617 0 10.2002C0 11.6433 0.302266 13.0368 0.898398 14.3418C0.987578 14.5371 1.21883 14.6249 1.41602 14.5348Z" fill="black"/>
<path d="M10 2.77832C6.17945 2.77832 2.57812 5.81293 2.57812 10.2002C2.57812 14.2639 5.87887 17.6221 10 17.6221C14.1203 17.6221 17.4219 14.2659 17.4219 10.2002C17.4219 6.13648 14.1211 2.77832 10 2.77832ZM7.90922 3.89707C7.10199 4.85664 6.61348 6.22617 6.36066 7.46582H3.94875C4.70922 5.78961 6.14633 4.48336 7.90922 3.89707ZM3.35938 10.2002C3.35938 9.52074 3.46215 8.86484 3.65266 8.24707L6.22684 8.24668C6.1391 8.87543 6.09375 9.53145 6.09375 10.2002C6.09375 10.8689 6.1391 11.5246 6.22684 12.1533H3.65266C3.46215 11.5355 3.35938 10.8796 3.35938 10.2002ZM3.94879 12.9346H6.3607C6.61344 14.1739 7.10191 15.5436 7.90926 16.5033C6.14633 15.917 4.70922 14.6108 3.94879 12.9346ZM9.60938 16.7866C8.53437 16.4869 7.61043 14.9722 7.16289 12.9346H9.60938V16.7866ZM9.60938 12.1533H7.01879C6.92551 11.533 6.875 10.8764 6.875 10.2002C6.875 9.52395 6.92555 8.86742 7.01879 8.24707H9.60938V12.1533ZM9.60938 7.46582H7.16289C7.61043 5.42816 8.53437 3.91352 9.60938 3.61383V7.46582ZM10.3906 3.61383C11.4656 3.91352 12.3896 5.4282 12.8371 7.46582H10.3906V3.61383ZM10.3906 8.24707H12.9812C13.0745 8.86742 13.125 9.52395 13.125 10.2002C13.125 10.8764 13.0745 11.533 12.9812 12.1533H10.3906V8.24707ZM10.3906 16.7866V12.9342L12.8371 12.9346C12.3896 14.9722 11.4656 16.4869 10.3906 16.7866ZM12.0908 16.5033C12.8984 15.5434 13.3867 14.1734 13.6393 12.9342H16.0512C15.2908 14.6108 13.8537 15.917 12.0908 16.5033ZM16.6406 10.2002C16.6406 10.8796 16.5379 11.5355 16.3473 12.1533H13.7732C13.8609 11.5246 13.9062 10.8689 13.9062 10.2002C13.9062 9.53145 13.8609 8.87582 13.7732 8.24707H16.3473C16.5379 8.86484 16.6406 9.52074 16.6406 10.2002ZM13.6393 7.46582C13.3866 6.22645 12.8981 4.85676 12.0907 3.89707C13.8536 4.48336 15.2908 5.78961 16.0512 7.46582H13.6393Z" fill="black"/>
</g>
<defs>
<clipPath id="clip0_280_855">
<rect width="20" height="20" fill="white" transform="translate(0 0.200195)"/>
</clipPath>
</defs>
</svg>
